<svg xmlns="http://www.w3.org/2000/svg" viewBox="0 0 63.48 51.89"><defs><style>.cls-1{fill:#939393;}.cls-2,.cls-3,.cls-4,.cls-5{fill:none;stroke:#000;}.cls-2,.cls-3,.cls-4{stroke-miterlimit:10;}.cls-2,.cls-4,.cls-5{stroke-width:2px;}.cls-3{stroke-width:2.5px;}.cls-4{stroke-linecap:round;}.cls-5{stroke-linejoin:round;}</style></defs><g id="Слой_2" data-name="Слой 2"><g id="Layer_16" data-name="Layer 16"><path class="cls-1" d="M58.48,2.5A2.5,2.5,0,0,1,61,5V46.9a2.5,2.5,0,0,1-2.5,2.5H5a2.5,2.5,0,0,1-2.5-2.5V5A2.5,2.5,0,0,1,5,2.5H58.48m0-2.5H5A5,5,0,0,0,0,5V46.9a5,5,0,0,0,5,5H58.48a5,5,0,0,0,5-5V5a5,5,0,0,0-5-5Z"/><line class="cls-2" x1="53.47" y1="1.56" x2="48.41" y2="20.55"/><line class="cls-3" x1="16.75" y1="26.23" x2="6.17" y2="23.37"/><line class="cls-3" x1="61.97" y1="24.29" x2="6.17" y2="9.4"/><line class="cls-3" x1="13.21" y1="39.78" x2="23.49" y2="1.31"/><line class="cls-4" x1="29.95" y1="45.01" x2="33.53" y2="45.01"/><line class="cls-5" x1="1.84" y1="39.95" x2="61.64" y2="39.95"/></g></g></svg>