<svg xmlns="http://www.w3.org/2000/svg" viewBox="0 0 64.62 64.62"><defs><style>.cls-1,.cls-2{fill:none;stroke-miterlimit:10;}.cls-1{stroke:#939393;stroke-width:2px;}.cls-2{stroke:#000;stroke-width:2.1px;}</style></defs><g id="Слой_2" data-name="Слой 2"><g id="Layer_16" data-name="Layer 16"><path class="cls-1" d="M64.62,20.2H48.47a4,4,0,0,1-4-4V0"/><path class="cls-1" d="M44.43,64.62V48.47a4,4,0,0,1,4-4H64.62"/><path class="cls-1" d="M0,44.43H16.16a4,4,0,0,1,4,4V64.62"/><path class="cls-1" d="M20.2,0V16.16a4,4,0,0,1-4,4H0"/><line class="cls-2" x1="32.31" y1="44.43" x2="32.31" y2="52.51"/><line class="cls-2" x1="32.31" y1="56.55" x2="32.31" y2="64.62"/><line class="cls-2" x1="32.31" x2="32.31" y2="8.08"/><line class="cls-2" x1="32.31" y1="12.12" x2="32.31" y2="20.2"/><line class="cls-2" x1="20.2" y1="32.31" x2="12.12" y2="32.31"/><line class="cls-2" x1="8.08" y1="32.31" y2="32.31"/><line class="cls-2" x1="64.62" y1="32.31" x2="56.55" y2="32.31"/><line class="cls-2" x1="52.51" y1="32.31" x2="44.43" y2="32.31"/></g></g></svg>