<svg xmlns="http://www.w3.org/2000/svg" viewBox="0 0 54.06 63.19"><defs><style>.cls-1,.cls-2{fill:none;stroke-miterlimit:10;stroke-width:2px;}.cls-1{stroke:#000;}.cls-2{stroke:#939393;}</style></defs><g id="Слой_2" data-name="Слой 2"><g id="Layer_16" data-name="Layer 16"><path class="cls-1" d="M28.62,13.68h-11a.61.61,0,0,0-.61.61V43.6a.61.61,0,0,0,.61.61h4.88a.61.61,0,0,0,.61-.61V35.05a.61.61,0,0,1,.61-.61h4.89A10.38,10.38,0,0,0,39,24.06h0A10.38,10.38,0,0,0,28.62,13.68Zm4.27,10.38a4.27,4.27,0,0,1-4.27,4.27H23.73a.61.61,0,0,1-.61-.61V20.39a.62.62,0,0,1,.61-.61h4.89a4.28,4.28,0,0,1,4.27,4.28Z"/><rect class="cls-2" x="1" y="1" width="52.06" height="53.51" rx="2.72"/><line class="cls-2" x1="31.37" y1="54.51" x2="31.37" y2="63.19"/><line class="cls-2" x1="22.69" y1="63.19" x2="22.69" y2="54.51"/></g></g></svg>