<svg xmlns="http://www.w3.org/2000/svg" viewBox="0 0 35.53 32.38"><defs><style>.cls-1{fill:none;stroke:#ffe400;stroke-miterlimit:10;stroke-width:1.4px;}</style></defs><g id="Слой_2" data-name="Слой 2"><g id="Layer_3" data-name="Layer 3"><line class="cls-1" x1="17.97" y1="17.5" x2="13.77" y2="21.07"/><line class="cls-1" x1="19.36" y1="6.58" x2="19.36" y2="14.43"/><path class="cls-1" d="M18.34,31.65q.5,0,1,0a15.23,15.23,0,0,0,6.35-1.36"/><path class="cls-1" d="M12,29.82a15.61,15.61,0,0,0,4.38,1.57"/><path class="cls-1" d="M7.85,26.58a14.93,14.93,0,0,0,2.6,2.3"/><path class="cls-1" d="M21.13,16.23a1.8,1.8,0,1,1-1.8-1.8A1.8,1.8,0,0,1,21.13,16.23Z"/><path class="cls-1" d="M27.34,29.47A15.5,15.5,0,1,0,3.83,16.2v.58H1.31l4.1,6.13,4.1-6.13H7V16.2a12.36,12.36,0,1,1,2.23,7.09"/></g></g></svg>