<svg xmlns="http://www.w3.org/2000/svg" viewBox="0 0 60.67 70.7"><defs><style>.cls-1{fill:#ffe400;}.cls-2{fill:none;stroke:#000;stroke-linecap:round;stroke-linejoin:round;stroke-width:1.4px;}</style></defs><g id="Слой_2" data-name="Слой 2"><g id="Layer_1" data-name="Layer 1"><circle class="cls-1" cx="30.33" cy="30.33" r="30.33"/><path class="cls-2" d="M41.44,30.42c0,8.8-4.89,15.92-10.9,15.92s-10.88-7.12-10.9-15.92m25.92-3.37v0a.41.41,0,0,1-.05.18c-.58,1.24-6.63,2-14.2,2.09H29.76c-7.57-.05-13.62-.85-14.2-2.09a.39.39,0,0,1,0-.18v0c0-1.37,1.13-2.29,3-2.22V23.1c0-14.73,24-14.67,24,0v1.73c1.87-.07,3,.85,3,2.22ZM9.81,51.8,13,50.4l.7,19.6H4L5.85,55.76A5.15,5.15,0,0,1,7.12,53c.68-.71,1.69-.73,2.69-1.17Zm38-1.4,3.42,1.4c2,.83,3.67,1.82,3.95,4L57.12,70h-10l.7-19.6Zm-33.72-.52,5.68-3L20.66,62H40.42l.84-15.07,5.69,3M46.77,70H14.31M28.25,12.36v8m4.58-8v8"/></g></g></svg>