<svg xmlns="http://www.w3.org/2000/svg" viewBox="0 0 68.33 49.24"><defs><style>.cls-1,.cls-2{fill:none;stroke-miterlimit:10;}.cls-1{stroke:#939393;stroke-width:2px;}.cls-2{stroke:#ffe400;stroke-width:1.9px;}</style></defs><g id="Слой_2" data-name="Слой 2"><g id="Layer_3" data-name="Layer 3"><path class="cls-1" d="M4.22,1H63.81a3.52,3.52,0,0,1,3.52,3.52v40a3.73,3.73,0,0,1-3.73,3.73H4.24A3.24,3.24,0,0,1,1,45V4.22A3.22,3.22,0,0,1,4.22,1Z"/><path class="cls-2" d="M34.18,34.07a9.45,9.45,0,1,0-9.45-9.45A9.45,9.45,0,0,0,34.18,34.07Z"/><line class="cls-2" x1="34.18" y1="4.15" x2="34.18" y2="45.09"/><polyline class="cls-2" points="4.15 13.6 15.17 13.6 15.17 35.64 4.15 35.64"/><polyline class="cls-2" points="64.18 13.6 53.16 13.6 53.16 35.64 64.18 35.64"/></g></g></svg>