<svg xmlns="http://www.w3.org/2000/svg" xmlns:xlink="http://www.w3.org/1999/xlink" viewBox="0 0 250.9 209.92"><defs><style>.cls-1,.cls-10,.cls-2,.cls-3,.cls-7,.cls-8,.cls-9{fill:none;}.cls-2,.cls-9{stroke:#939393;}.cls-10,.cls-11,.cls-2,.cls-3,.cls-7,.cls-8,.cls-9{stroke-miterlimit:10;}.cls-2{stroke-width:2px;}.cls-11,.cls-3,.cls-7,.cls-8{stroke:#ffe400;}.cls-3{stroke-width:2.1px;}.cls-4{clip-path:url(#clip-path);}.cls-5{fill:#565656;}.cls-11,.cls-6{fill:#ffe400;}.cls-10,.cls-7{stroke-width:1.8px;}.cls-8{stroke-width:1.9px;}.cls-9{stroke-width:1.7px;}.cls-10{stroke:#fcee21;}.cls-11{font-size:23.55px;stroke-width:0.75px;font-family:OpenSans-Regular, OpenSans Regular;}</style><clipPath id="clip-path" transform="translate(0 15.34)"><path class="cls-1" d="M231.55,29.31l-2.14-2.23L220,18a.92.92,0,0,0-1.59.64l.1,5.73H218A25.36,25.36,0,0,0,203.48,29v-15l5.74,0a.92.92,0,0,0,.63-1.59l-9.06-9.41-2-2a.93.93,0,0,0-1.28,0l-2.23,2.15-9.06,9.4a.91.91,0,0,0-.21,1,.88.88,0,0,0,.86.58l5.72-.1V64.15a.93.93,0,0,0,.93.92l9.09,0a.92.92,0,0,0,.92-.92V49.88A14.55,14.55,0,0,1,218,35.34l.27,0v0h.27l0,5.74a.94.94,0,0,0,.59.85.92.92,0,0,0,1-.22l9.41-9.05,2-2.06A.91.91,0,0,0,231.55,29.31Zm-3.3,2.06-7.84,7.42,0-4.39a.91.91,0,0,0-.88-.91H218a16.39,16.39,0,0,0-14.54,8.85,17.17,17.17,0,0,0-.72,1.57,16.41,16.41,0,0,0-1.12,6h0v1.84h0V63.26l-7.24,0V51.72h0V13.05a.93.93,0,0,0-.27-.65,1,1,0,0,0-.66-.27l-4.34.09,7.39-7.8,1.59-1.53,1.41,1.35,7.42,7.84-4.38,0a.92.92,0,0,0-.92.92V32.88c.59-.57,1.21-1.1,1.85-1.61a23.52,23.52,0,0,1,14.54-5h1.49a.9.9,0,0,0,.58-.27,1,1,0,0,0,.27-.66L220.28,21l7.79,7.38L229.61,30Z"/></clipPath></defs><g id="Слой_2" data-name="Слой 2"><g id="Layer_2" data-name="Layer 2"><path class="cls-2" d="M80.63,20.2H64.48a4,4,0,0,1-4-4V0" transform="translate(0 15.34)"/><path class="cls-2" d="M60.44,64.62V48.47a4,4,0,0,1,4-4H80.63" transform="translate(0 15.34)"/><path class="cls-2" d="M16,44.43H32.16a4,4,0,0,1,4,4V64.62" transform="translate(0 15.34)"/><path class="cls-2" d="M36.2,0V16.16a4,4,0,0,1-4,4H16" transform="translate(0 15.34)"/><line class="cls-3" x1="48.32" y1="59.77" x2="48.32" y2="67.85"/><line class="cls-3" x1="48.32" y1="71.89" x2="48.32" y2="79.97"/><line class="cls-3" x1="48.32" y1="15.34" x2="48.32" y2="23.42"/><line class="cls-3" x1="48.32" y1="27.46" x2="48.32" y2="35.54"/><line class="cls-3" x1="36.2" y1="47.65" x2="28.12" y2="47.65"/><line class="cls-3" x1="24.09" y1="47.65" x2="16.01" y2="47.65"/><line class="cls-3" x1="80.63" y1="47.65" x2="72.55" y2="47.65"/><line class="cls-3" x1="68.51" y1="47.65" x2="60.44" y2="47.65"/></g><g id="Layer_4" data-name="Layer 4"><g class="cls-4"><rect class="cls-5" x="152.84" y="57.98" width="95.46" height="44.26"/><rect class="cls-6" x="155.45" width="95.46" height="58.03"/></g></g><g id="Layer_3" data-name="Layer 3"><line class="cls-7" x1="240" y1="57.55" x2="178.06" y2="57.55"/><line class="cls-8" x1="8.72" y1="187.45" x2="8.72" y2="187.45"/></g><g id="Layer_9" data-name="Layer 9"><path class="cls-8" d="M8,172.39V161.87a6.56,6.56,0,0,1,6.56-6.56H74.44A6.56,6.56,0,0,1,81,161.87v10.8" transform="translate(0 15.34)"/><path class="cls-8" d="M15.18,172.39v-6.87a3,3,0,0,1,3-3H70.79a3,3,0,0,1,3,3v7.15" transform="translate(0 15.34)"/></g><g id="Layer_11" data-name="Layer 11"><line class="cls-2" y1="187.45" x2="89" y2="187.45"/></g><g id="Layer_13" data-name="Layer 13"><line class="cls-9" x1="209.48" y1="187.43" x2="209.48" y2="209.92"/><line class="cls-9" x1="201.58" y1="209.92" x2="201.58" y2="187.43"/><path class="cls-9" d="M209.48,121.19a3.29,3.29,0,0,0-3.29-3.29h-1.32a3.29,3.29,0,0,0-3.29,3.29" transform="translate(0 15.34)"/><circle class="cls-10" cx="206.5" cy="162.57" r="25.5"/></g><g id="Layer_15" data-name="Layer 15"><text class="cls-11" transform="translate(193.33 171.63)">60</text></g><g id="Layer_10" data-name="Layer 10"><rect class="cls-6" x="22" y="171.45" width="7" height="7"/><rect class="cls-6" x="41" y="170.45" width="7" height="7"/><rect class="cls-6" x="60" y="170.45" width="7" height="7"/></g></g></svg>