<svg xmlns="http://www.w3.org/2000/svg" viewBox="0 0 55.24 85.13"><defs><style>.cls-1{fill:#fff;}</style></defs><title>Asset 3</title><g id="Layer_2" data-name="Layer 2"><g id="Layer_1-2" data-name="Layer 1"><g id="_Group_" data-name="&lt;Group&gt;"><path id="_Compound_Path_" data-name="&lt;Compound Path&gt;" class="cls-1" d="M30.48,0H24.76A24.79,24.79,0,0,0,0,24.76V60.37A24.79,24.79,0,0,0,24.76,85.13h5.72A24.79,24.79,0,0,0,55.24,60.37V24.76A24.79,24.79,0,0,0,30.48,0ZM27.62,26.69a4.2,4.2,0,0,1,4.19,4.19V41.5a4.19,4.19,0,1,1-8.38,0V30.88A4.2,4.2,0,0,1,27.62,26.69ZM52.11,60.37A21.65,21.65,0,0,1,30.48,82H24.76A21.65,21.65,0,0,1,3.13,60.37V24.76A21.65,21.65,0,0,1,24.76,3.13h1.3V23.74a7.33,7.33,0,0,0-5.76,7.14V41.5a7.32,7.32,0,1,0,14.64,0V30.88a7.33,7.33,0,0,0-5.76-7.14V3.13h1.3A21.65,21.65,0,0,1,52.11,24.76Z"/></g></g></g></svg>