<svg xmlns="http://www.w3.org/2000/svg" viewBox="0 0 39.92 32.31">
<defs>
<style>.cls-1{fill:none;stroke:#999;stroke-width:1.5px;opacity:0.6;}.cls-1,.cls-2{stroke-miterlimit:10;}.cls-2{fill:#ffe400;stroke:#ffe400;}</style>
</defs>
<g id="Слой_2" data-name="Слой 2">
<g id="Layer_2" data-name="Layer 2">
<circle class="cls-1" cx="23.76" cy="16.15" r="15.4"/>
</g>
<g id="Layer_3" data-name="Layer 3">
<path class="cls-2" d="M21.06,8.69a.28.28,0,0,0-.4.4L26.58,15l.93.94H.78a.28.28,0,0,0-.28.28.29.29,0,0,0,.28.28H27.51l-6.85,6.86a.28.28,0,0,0,0,.4.3.3,0,0,0,.2.08.32.32,0,0,0,.2-.08l7.34-7.34a.28.28,0,0,0,0-.4Z"/>
</g>
</g>
</svg>