<svg xmlns="http://www.w3.org/2000/svg" viewBox="0 0 69.86 56.9"><defs><style>.cls-1,.cls-2{fill:none;stroke-miterlimit:10;}.cls-1{stroke:#939393;stroke-width:2px;}.cls-2{stroke:#ffe400;stroke-width:1.8px;}</style></defs><g id="Слой_2" data-name="Слой 2"><g id="Layer_4" data-name="Layer 4"><line class="cls-1" x1="10.41" y1="36.68" x2="5.95" y2="36.68"/><polyline class="cls-1" points="5.95 26.27 1.49 24.78 1.49 18.84"/><polyline class="cls-1" points="20.81 39.65 20.81 32.22 13.38 32.22 13.38 39.65"/><line class="cls-1" x1="23.78" y1="36.68" x2="28.24" y2="36.68"/><polyline class="cls-1" points="28.24 26.27 32.7 24.78 32.7 18.84"/><polyline class="cls-1" points="2.97 42.62 2.97 47.08 10.4 47.08 10.4 42.62"/><polyline class="cls-1" points="23.78 42.62 23.78 47.08 31.22 47.08 31.22 42.62"/><path class="cls-1" d="M28.24,7V27.76l1.49,1.48a4.14,4.14,0,0,1,1.49,3v4.46H32.7v5.94H1.49V36.68H3V32.22a4.14,4.14,0,0,1,1.49-3L6,27.76V7"/><path class="cls-1" d="M28.24,15.86l-1.82-1.69c-1.1-1.27-2.45-1.28-4.12-1.28H11.89c-1.67,0-3,0-4.12,1.28L6,15.86"/><path class="cls-1" d="M1.49,17.35V4.3A3.3,3.3,0,0,1,4.79,1H29.27A3.43,3.43,0,0,1,32.7,4.43V17.35"/><path class="cls-1" d="M38.65,32.22V5.3A4.31,4.31,0,0,1,43,1H62.18a4.71,4.71,0,0,1,4.71,4.71V32.22"/><line class="cls-1" x1="34.19" y1="32.22" x2="69.86" y2="32.22"/><line class="cls-2" x1="35.68" y1="42.62" x2="69.86" y2="42.62"/><line class="cls-2" y1="56" x2="8.92" y2="56"/><line class="cls-2" x1="14.86" y1="56" x2="23.78" y2="56"/><line class="cls-2" x1="29.73" y1="56" x2="38.65" y2="56"/><line class="cls-2" x1="44.59" y1="56" x2="53.51" y2="56"/><line class="cls-2" x1="59.46" y1="56" x2="68.38" y2="56"/></g></g></svg>