<svg xmlns="http://www.w3.org/2000/svg" viewBox="0 0 33.67 36.96"><defs><style>.cls-1{fill:none;stroke:#ffe400;stroke-miterlimit:10;stroke-width:1.4px;}</style></defs><g id="Слой_2" data-name="Слой 2"><g id="Layer_3" data-name="Layer 3"><path class="cls-1" d="M32.53,25.42,19.1,2.06a2.58,2.58,0,0,0-4.54,0L1.13,25.42C.07,27.27,1,29.24,3.4,29.24H30.26C32.65,29.24,33.6,27.27,32.53,25.42Z"/><line class="cls-1" x1="16.84" y1="3.79" x2="16.84" y2="5.34"/><line class="cls-1" x1="4.5" y1="25.39" x2="4.5" y2="26.93"/><line class="cls-1" x1="29.18" y1="25.39" x2="29.18" y2="26.93"/><line class="cls-1" x1="14.52" y1="30.79" x2="14.52" y2="36.96"/><line class="cls-1" x1="19.15" y1="30.79" x2="19.15" y2="36.96"/><path class="cls-1" d="M19.15,10.73a2.32,2.32,0,0,0-4.63,0l.78,7a1.58,1.58,0,0,0,1.54,1.54,1.61,1.61,0,0,0,1.54-1.54Z"/><circle class="cls-1" cx="16.84" cy="23.85" r="2.31"/></g></g></svg>