<svg xmlns="http://www.w3.org/2000/svg" viewBox="0 0 46.73 30.41"><defs><style>.cls-1{fill:#ffe400;}</style></defs><g id="Слой_2" data-name="Слой 2"><g id="Layer_3" data-name="Layer 3"><path class="cls-1" d="M15.6,3.82v8.37a.6.6,0,0,0,.59.6H27.05a.6.6,0,0,0,.57-.75L25.38,3.66a.59.59,0,0,0-.57-.43H16.19A.59.59,0,0,0,15.6,3.82Zm1.18.59h7.58l1.92,7.19h-9.5Z"/><path class="cls-1" d="M12.53,13.82H7.32a.59.59,0,0,1,0-1.18h5.21a.59.59,0,0,1,0,1.18Z"/><path class="cls-1" d="M12.53,15.91H7.32a.6.6,0,0,1-.59-.59.59.59,0,0,1,.59-.59h5.21a.59.59,0,0,1,.59.59A.6.6,0,0,1,12.53,15.91Z"/><path class="cls-1" d="M6.73,17.4a.6.6,0,0,1,.59-.59h5.21a.6.6,0,0,1,0,1.19H7.32A.6.6,0,0,1,6.73,17.4Z"/><path class="cls-1" d="M0,24.89a5.53,5.53,0,0,0,11.05,0,5.7,5.7,0,0,0-.1-1.1h7.14v.58a2.27,2.27,0,0,0,2.27,2.26h2.73a2.26,2.26,0,0,0,2.26-2.26v-.58H27a9.27,9.27,0,0,0,17.78-.06h1.39a.6.6,0,0,0,.59-.59v-4a.6.6,0,0,0-.59-.59H44.75A9.27,9.27,0,0,0,31,13.26a.67.67,0,0,0-.16-.25L28,2.71a.06.06,0,0,1,0,0A2.93,2.93,0,0,0,25.21.75H15.56a2.9,2.9,0,0,0-2.9,2.9V9.91h-1.8V6.5a1.23,1.23,0,0,0-.41-.91V3.23A3.29,3.29,0,0,0,9.7.84a2.58,2.58,0,0,0-2-.84H6.48a.59.59,0,0,0-.59.59V2.47a.6.6,0,0,0,.59.6h.91V5.56A1.22,1.22,0,0,0,7,6.5V9.93a3.54,3.54,0,0,0-3.18,3.51v6.21A5.52,5.52,0,0,0,0,24.89Zm5.53,4.34a4.35,4.35,0,0,1-1.76-8.32,5.89,5.89,0,0,1,.59-.21A5.6,5.6,0,0,1,5,20.58a3.69,3.69,0,0,1,.58,0,4.36,4.36,0,0,1,3.7,2.07,3.64,3.64,0,0,1,.3.59,4.1,4.1,0,0,1,.2.59,4,4,0,0,1,.14,1.1A4.35,4.35,0,0,1,5.53,29.23Zm13.74-6v-.36h4.9v1.53a1.08,1.08,0,0,1-1.08,1.08H20.36a1.08,1.08,0,0,1-1.09-1.08V23.2Zm8.92.53H43.51a8.08,8.08,0,0,1-15.3.06ZM45,22.55H36.84a1.72,1.72,0,0,0,0-2.8h8.71v2.8Zm-1.5-4H28.19a8,8,0,0,1,1.65-2.82,8.21,8.21,0,0,1,.59-.59c.21-.19.44-.37.67-.54a8,8,0,0,1,4.75-1.55A8.1,8.1,0,0,1,43.51,18.57Zm-7.13,2.58a.53.53,0,1,1-.53-.53A.53.53,0,0,1,36.38,21.15Zm-1.52,1.4H25.35v-2.8h9.51a1.72,1.72,0,0,0,0,2.8ZM24.17,19.46h-4.9V17.93a1.08,1.08,0,0,1,1.09-1.08h2.73a1.08,1.08,0,0,1,1.08,1.08v1.53Zm-.85,1.18h.85v1h-4.9v-1Zm-5.23,2H10.56A5.53,5.53,0,0,0,5,19.39v-6A2.35,2.35,0,0,1,7.13,11.1h6.12a.59.59,0,0,0,.59-.59V3.65a1.72,1.72,0,0,1,1.72-1.72h9.65a1.73,1.73,0,0,1,1.62,1.12l2.94,10.51a.87.87,0,0,0,.07.17.35.35,0,0,0,0,.11c0,.07,0,.14,0,.21a9.27,9.27,0,0,0-3,4.52h-1.6v-.64a2.26,2.26,0,0,0-2.26-2.26H20.36a2.27,2.27,0,0,0-2.27,2.26v4.68Zm-9.26-21a2.11,2.11,0,0,1,.44,1.53v2.1h-.7V3.15h0v0a1.55,1.55,0,0,0-.27-1,.75.75,0,0,0-.58-.22H7.07v-.7h.65A1.41,1.41,0,0,1,8.83,1.64Zm.85,8.27H8.13V6.5a.05.05,0,0,1,0,0H9.63a.06.06,0,0,1,0,0V9.91Z"/><path class="cls-1" d="M3,24.89a2.56,2.56,0,0,0,5.11,0,2.5,2.5,0,0,0-.24-1.1,2.87,2.87,0,0,0-.39-.59,2.59,2.59,0,0,0-.76-.59,2.52,2.52,0,0,0-1.16-.28A2.25,2.25,0,0,0,5,22.4a2.3,2.3,0,0,0-.59.21,2.52,2.52,0,0,0-.59.42A2.57,2.57,0,0,0,3,24.89Zm1.18,0a1.38,1.38,0,0,1,.55-1.1,1.37,1.37,0,0,1,1.66,0,1.38,1.38,0,1,1-2.21,1.1Z"/></g></g></svg>