<svg xmlns="http://www.w3.org/2000/svg" viewBox="0 0 71.63 85.51"><defs><style>.cls-1{fill:#262626;}.cls-2{fill:none;stroke:#ffe400;stroke-miterlimit:10;stroke-width:1.4px;}</style></defs><g id="Слой_2" data-name="Слой 2"><g id="Layer_1" data-name="Layer 1"><circle class="cls-1" cx="41.3" cy="30.33" r="30.33"/></g><g id="Layer_3" data-name="Layer 3"><line class="cls-2" x1="12.86" y1="73.84" x2="38.31" y2="73.84"/><rect class="cls-2" x="0.7" y="20.64" width="49.78" height="30.83"/><polyline class="cls-2" points="20.16 73.72 20.16 67.08 31.02 67.08 31.02 73.72"/><path class="cls-2" d="M9.28,36.05a.78.78,0,0,1-1.56,0,.78.78,0,0,1,1.56,0Z"/><path class="cls-2" d="M15.51,36.05a.78.78,0,1,1-.78-.78A.77.77,0,0,1,15.51,36.05Z"/><path class="cls-2" d="M21.73,36.05a.78.78,0,1,1-.78-.78A.77.77,0,0,1,21.73,36.05Z"/><path class="cls-2" d="M28,36.05a.78.78,0,0,1-1.56,0,.78.78,0,1,1,1.56,0Z"/><path class="cls-2" d="M34.18,36.05a.78.78,0,1,1-.78-.78A.77.77,0,0,1,34.18,36.05Z"/><path class="cls-2" d="M43.45,36.05a.78.78,0,0,1-1.56,0,.78.78,0,1,1,1.56,0Z"/><path class="cls-2" d="M34.57,27.14a.78.78,0,1,1-.78-.78A.77.77,0,0,1,34.57,27.14Z"/><path class="cls-2" d="M39,31.6a.78.78,0,1,1-.78-.78A.78.78,0,0,1,39,31.6Z"/><path class="cls-2" d="M39,40.51a.78.78,0,1,1-.78-.78A.78.78,0,0,1,39,40.51Z"/><path class="cls-2" d="M34.57,45a.78.78,0,1,1-.78-.78A.77.77,0,0,1,34.57,45Z"/><path class="cls-2" d="M12.7,77.6H4.37V69.31a2.9,2.9,0,0,1,2.89-2.88H9.81a2.9,2.9,0,0,1,2.89,2.88Z"/><path class="cls-2" d="M11.16,77.78v5.1a1.91,1.91,0,0,1-1.87,1.93H7.78a1.91,1.91,0,0,1-1.87-1.93v-5.1"/><line class="cls-2" x1="8.54" y1="56.07" x2="8.54" y2="66.26"/><path class="cls-2" d="M46.8,77.6H38.48V69.31a2.9,2.9,0,0,1,2.89-2.88h2.54a2.9,2.9,0,0,1,2.89,2.88Z"/><path class="cls-2" d="M45.27,77.78v5.1a1.91,1.91,0,0,1-1.87,1.93H41.89A1.91,1.91,0,0,1,40,82.88v-5.1"/><line class="cls-2" x1="42.64" y1="56.07" x2="42.64" y2="66.26"/></g></g></svg>