<svg xmlns="http://www.w3.org/2000/svg" xmlns:xlink="http://www.w3.org/1999/xlink" viewBox="0 0 98.06 102.24"><defs><style>.cls-1,.cls-5{fill:none;}.cls-2{clip-path:url(#clip-path);}.cls-3{fill:#565656;}.cls-4{fill:#ffe400;}.cls-5{stroke:#ffe400;stroke-miterlimit:10;stroke-width:1.8px;}</style><clipPath id="clip-path" transform="translate(25.22 16.02)"><path class="cls-1" d="M53.49,28.63,51.34,26.4l-9.4-9.06a.92.92,0,0,0-1-.21.88.88,0,0,0-.58.86l.09,5.73h-.55A25.27,25.27,0,0,0,25.42,28.3v-15l5.73,0a1,1,0,0,0,.86-.59.93.93,0,0,0-.22-1L22.73,2.23l-2.05-2a.91.91,0,0,0-1.28,0L17.16,2.41l-9,9.4a.92.92,0,0,0,.65,1.59l5.72-.1V63.46a.93.93,0,0,0,.92.93l9.09,0a.93.93,0,0,0,.93-.92V49.19A14.56,14.56,0,0,1,40,34.65l.27,0v0h.27l0,5.74a.92.92,0,0,0,1.59.63L51.52,32l2-2.05A.93.93,0,0,0,53.49,28.63Zm-3.3,2.05-7.84,7.43,0-4.39a.92.92,0,0,0-.89-.91H40a16.39,16.39,0,0,0-14.54,8.85,14.85,14.85,0,0,0-.72,1.57,16.41,16.41,0,0,0-1.13,6h0V51h0V62.57l-7.24,0V51h0V12.37a.9.9,0,0,0-.28-.65.92.92,0,0,0-.65-.27l-4.34.08,7.38-7.79L20,2.2l1.41,1.36,7.42,7.84-4.38,0a.92.92,0,0,0-.92.92V32.2A23.66,23.66,0,0,1,40,25.56h1.48a1,1,0,0,0,.59-.27,1,1,0,0,0,.27-.66l-.09-4.34L50,27.68l1.53,1.59Z"/></clipPath></defs><g id="Слой_2" data-name="Слой 2"><g id="Layer_4" data-name="Layer 4"><g class="cls-2"><rect class="cls-3" y="57.98" width="95.46" height="44.26"/><rect class="cls-4" x="2.6" width="95.46" height="58.03"/></g></g><g id="Layer_3" data-name="Layer 3"><line class="cls-5" x1="87.16" y1="57.55" x2="25.22" y2="57.55"/></g></g></svg>